<!DOCTYPE svg PUBLIC "-//W3C//DTD SVG 1.1//EN" "http://www.w3.org/Graphics/SVG/1.1/DTD/svg11.dtd">
<!-- Uploaded to: SVG Repo, www.svgrepo.com, Transformed by: SVG Repo Mixer Tools -->
<svg height="800px" width="800px" version="1.1" id="Capa_1" xmlns="http://www.w3.org/2000/svg" xmlns:xlink="http://www.w3.org/1999/xlink" viewBox="-1.16 -1.16 60.32 60.32" xml:space="preserve" fill="#000000">
<g id="SVGRepo_bgCarrier" stroke-width="0">
<rect x="-1.16" y="-1.16" width="60.32" height="60.32" rx="30.16" fill="#000000" strokewidth="0"/>
</g>
<g id="SVGRepo_tracerCarrier" stroke-linecap="round" stroke-linejoin="round"/>
<g id="SVGRepo_iconCarrier"> <circle style="fill:#556080;" cx="29" cy="29" r="29"/> <g> <path style="fill:#FFFFFF;" d="M16,21c-2.206,0-4-1.794-4-4s1.794-4,4-4s4,1.794,4,4S18.206,21,16,21z M16,15c-1.103,0-2,0.897-2,2 s0.897,2,2,2s2-0.897,2-2S17.103,15,16,15z"/> </g> <path style="fill:#FFFFFF;" d="M40,45h-6.211C25.496,45,19,38.214,19,29.55S25.496,14.1,33.789,14.1H40c0.552,0,1,0.447,1,1 s-0.448,1-1,1h-6.211C26.498,16.1,21,21.882,21,29.55S26.498,43,33.789,43H40c0.552,0,1,0.447,1,1S40.552,45,40,45z"/> </g>
</svg>